adventprofmm_reg_krn_test_reduction_1_anchor.ufo
<glyph name="exclam" format="1">
  <advance width="99"/>
  <unicode hex="0021"/>
  <outline>
    <contour>
      <point x="19" y="610" type="curve" name="hr00"/>
      <point x="28" y="109" type="line"/>
      <point x="71" y="109" type="line"/>
      <point x="79" y="611" type="line" smooth="yes"/>
      <point x="79" y="633"/>
      <point x="69" y="644"/>
      <point x="49" y="644" type="curve" smooth="yes"/>
      <point x="29" y="644"/>
      <point x="19" y="633"/>
    </contour>
    <contour>
      <point x="49" y="61" type="curve" smooth="yes"/>
      <point x="32" y="61"/>
      <point x="19" y="47"/>
      <point x="19" y="31" type="curve" smooth="yes"/>
      <point x="19" y="14"/>
      <point x="32" y="0"/>
      <point x="49" y="0" type="curve" smooth="yes"/>
      <point x="66" y="0"/>
      <point x="79" y="14"/>
      <point x="79" y="31" type="curve" smooth="yes"/>
      <point x="79" y="47"/>
      <point x="66" y="61"/>
    </contour>
  </outline>
</glyph>
<glyph name="quotedbl" format="1">
  <advance width="218"/>
  <unicode hex="0022"/>
  <outline>
    <contour>
      <point x="139" y="637" type="curve" name="hr00"/>
      <point x="152" y="533" type="line"/>
      <point x="188" y="533" type="line"/>
      <point x="201" y="637" type="line"/>
      <point x="201" y="680"/>
      <point x="139" y="680"/>
    </contour>
    <contour>
      <point x="16" y="637" type="curve"/>
      <point x="29" y="533" type="line"/>
      <point x="65" y="533" type="line"/>
      <point x="78" y="637" type="line"/>
      <point x="78" y="680"/>
      <point x="16" y="680"/>
    </contour>
  </outline>
</glyph>
<glyph name="numbersign" format="1">
  <advance width="532"/>
  <unicode hex="0023"/>
  <outline>
    <contour>
      <point x="515" y="375" type="line"/>
      <point x="515" y="426" type="line"/>
      <point x="393" y="426" type="line"/>
      <point x="442" y="635" type="line"/>
      <point x="393" y="635" type="line"/>
      <point x="344" y="426" type="line"/>
      <point x="236" y="426" type="line"/>
      <point x="285" y="635" type="line"/>
      <point x="235" y="635" type="line"/>
      <point x="186" y="426" type="line"/>
      <point x="17" y="426" type="line"/>
      <point x="17" y="375" type="line"/>
      <point x="174" y="375" type="line"/>
      <point x="138" y="221" type="line"/>
      <point x="17" y="221" type="line"/>
      <point x="17" y="172" type="line"/>
      <point x="126" y="172" type="line"/>
      <point x="86" y="0" type="line" name="hr01"/>
      <point x="136" y="0" type="line"/>
      <point x="176" y="172" type="line" name="hr02"/>
      <point x="284" y="172" type="line"/>
      <point x="244" y="0" type="line" name="hr03"/>
      <point x="294" y="0" type="line"/>
      <point x="334" y="172" type="line" name="hr04"/>
      <point x="515" y="172" type="line"/>
      <point x="515" y="221" type="line"/>
      <point x="345" y="221" type="line"/>
      <point x="382" y="375" type="line"/>
    </contour>
    <contour>
      <point x="224" y="375" type="line"/>
      <point x="332" y="375" type="line"/>
      <point x="296" y="221" type="line"/>
      <point x="188" y="221" type="line"/>
    </contour>
  </outline>
</glyph>
<glyph name="ampersand" format="1">
  <advance width="457"/>
  <unicode hex="0026"/>
  <outline>
    <contour>
      <point x="333" y="592" type="curve" name="hr04"/>
      <point x="355" y="638" type="line"/>
      <point x="355" y="638"/>
      <point x="257" y="638"/>
      <point x="205" y="638" type="curve" smooth="yes"/>
      <point x="121" y="638"/>
      <point x="72" y="578"/>
      <point x="76" y="496" type="curve" name="hr01"/>
      <point x="77" y="459"/>
      <point x="85" y="410"/>
      <point x="137" y="365" type="curve"/>
      <point x="135" y="365"/>
      <point x="131" y="366"/>
      <point x="129" y="365" type="curve"/>
      <point x="64" y="360"/>
      <point x="16" y="325"/>
      <point x="16" y="231" type="curve" name="hr02" smooth="yes"/>
      <point x="16" y="202"/>
      <point x="16" y="174"/>
      <point x="16" y="145" type="curve"/>
      <point x="19" y="42"/>
      <point x="77" y="-5"/>
      <point x="177" y="-5" type="curve" smooth="yes"/>
      <point x="218" y="-5"/>
      <point x="281" y="13"/>
      <point x="318" y="56" type="curve"/>
      <point x="332" y="24"/>
      <point x="359" y="4"/>
      <point x="401" y="-8" type="curve" name="hr03"/>
      <point x="413" y="31" type="line"/>
      <point x="373" y="45"/>
      <point x="351" y="76"/>
      <point x="351" y="124" type="curve" smooth="yes"/>
      <point x="351" y="317" type="line"/>
      <point x="420" y="317" type="line"/>
      <point x="441" y="366" type="line"/>
      <point x="351" y="366" type="line"/>
      <point x="351" y="459" type="line"/>
      <point x="303" y="459" type="line"/>
      <point x="303" y="365" type="line"/>
      <point x="282" y="365"/>
      <point x="261" y="365"/>
      <point x="257" y="365" type="curve" smooth="yes"/>
      <point x="184" y="365"/>
      <point x="127" y="422"/>
      <point x="127" y="494" type="curve"/>
      <point x="125" y="552"/>
      <point x="157" y="592"/>
      <point x="208" y="592" type="curve" smooth="yes"/>
      <point x="241" y="592"/>
      <point x="333" y="592"/>
    </contour>
    <contour>
      <point x="303" y="317" type="curve"/>
      <point x="303" y="160" type="line" smooth="yes"/>
      <point x="303" y="96"/>
      <point x="261" y="52"/>
      <point x="187" y="45" type="curve" smooth="yes"/>
      <point x="109" y="38"/>
      <point x="67" y="79"/>
      <point x="67" y="149" type="curve" smooth="yes"/>
      <point x="67" y="154"/>
      <point x="67" y="225"/>
      <point x="67" y="228" type="curve" smooth="yes"/>
      <point x="67" y="311"/>
      <point x="123" y="317"/>
      <point x="156" y="317" type="curve" smooth="yes"/>
      <point x="183" y="317"/>
      <point x="254" y="317"/>
    </contour>
  </outline>
</glyph>
<glyph name="plus" format="1">
  <advance width="323"/>
  <unicode hex="002B"/>
  <outline>
    <contour>
      <point x="137" y="361" type="line" name="hr00"/>
      <point x="16" y="361" type="line"/>
      <point x="16" y="311" type="line"/>
      <point x="137" y="311" type="line"/>
      <point x="137" y="190" type="line"/>
      <point x="187" y="190" type="line"/>
      <point x="187" y="311" type="line"/>
      <point x="306" y="311" type="line"/>
      <point x="306" y="361" type="line"/>
      <point x="187" y="361" type="line"/>
      <point x="187" y="480" type="line"/>
      <point x="137" y="480" type="line"/>
    </contour>
  </outline>
</glyph>
<glyph name="comma" format="1">
  <advance width="98"/>
  <unicode hex="002C"/>
  <outline>
    <contour>
      <point x="17" y="-77" type="curve" name="hr00"/>
      <point x="33" y="-88" type="line"/>
      <point x="51" y="-72"/>
      <point x="80" y="-36"/>
      <point x="81" y="21" type="curve"/>
      <point x="80" y="39"/>
      <point x="67" y="51"/>
      <point x="50" y="51" type="curve" smooth="yes"/>
      <point x="33" y="51"/>
      <point x="20" y="38"/>
      <point x="20" y="21" type="curve" smooth="yes"/>
      <point x="20" y="6"/>
      <point x="31" y="-6"/>
      <point x="45" y="-9" type="curve"/>
      <point x="43" y="-28"/>
      <point x="36" y="-53"/>
    </contour>
  </outline>
</glyph>
<glyph name="hyphen" format="1">
  <advance width="328"/>
  <unicode hex="002D"/>
  <outline>
    <contour>
      <point x="308" y="375" type="line" name="hr00"/>
      <point x="18" y="375" type="line"/>
      <point x="18" y="323" type="line"/>
      <point x="308" y="323" type="line"/>
    </contour>
  </outline>
</glyph>
<glyph name="four" format="1">
  <advance width="412"/>
  <unicode hex="0034"/>
  <outline>
    <contour>
      <point x="336" y="323" type="line" name="hr00"/>
      <point x="384" y="323" type="line"/>
      <point x="402" y="375" type="line"/>
      <point x="336" y="375" type="line"/>
      <point x="336" y="635" type="line"/>
      <point x="285" y="635" type="line"/>
      <point x="285" y="375" type="line"/>
      <point x="85" y="375" type="line"/>
      <point x="227" y="635" type="line"/>
      <point x="174" y="635" type="line"/>
      <point x="-2" y="323" type="line"/>
      <point x="285" y="323" type="line"/>
      <point x="285" y="0" type="line"/>
      <point x="336" y="0" type="line"/>
    </contour>
  </outline>
</glyph>
<glyph name="five" format="1">
  <advance width="371"/>
  <unicode hex="0035"/>
  <outline>
    <contour>
      <point x="91" y="374" type="curve" name="hr00"/>
      <point x="113" y="583" type="line"/>
      <point x="309" y="583" type="line"/>
      <point x="309" y="635" type="line"/>
      <point x="68" y="635" type="line"/>
      <point x="35" y="323" type="line"/>
      <point x="139" y="323" type="line" smooth="yes"/>
      <point x="249" y="323"/>
      <point x="308" y="261"/>
      <point x="308" y="182" type="curve" smooth="yes"/>
      <point x="308" y="95"/>
      <point x="238" y="40"/>
      <point x="165" y="40" type="curve" smooth="yes"/>
      <point x="85" y="40"/>
      <point x="30" y="81"/>
      <point x="30" y="81" type="curve"/>
      <point x="11" y="38" type="line"/>
      <point x="11" y="38"/>
      <point x="87" y="-11"/>
      <point x="168" y="-11" type="curve" smooth="yes"/>
      <point x="289" y="-11"/>
      <point x="359" y="87"/>
      <point x="359" y="180" type="curve" smooth="yes"/>
      <point x="359" y="312"/>
      <point x="258" y="374"/>
      <point x="139" y="374" type="curve" smooth="yes"/>
      <point x="129" y="374"/>
      <point x="101" y="374"/>
    </contour>
  </outline>
</glyph>
<glyph name="six" format="1">
  <advance width="409"/>
  <unicode hex="0036"/>
  <outline>
    <contour>
      <point x="231" y="587" type="curve" name="hr00"/>
      <point x="266" y="587" type="line"/>
      <point x="266" y="635" type="line"/>
      <point x="235" y="635" type="line" smooth="yes"/>
      <point x="154" y="635"/>
      <point x="94" y="601"/>
      <point x="60" y="558" type="curve" smooth="yes"/>
      <point x="27" y="516"/>
      <point x="13" y="468"/>
      <point x="13" y="418" type="curve" smooth="yes"/>
      <point x="13" y="184" type="line" smooth="yes"/>
      <point x="13" y="130"/>
      <point x="32" y="84"/>
      <point x="70" y="47" type="curve" smooth="yes"/>
      <point x="107" y="10"/>
      <point x="153" y="-9"/>
      <point x="206" y="-9" type="curve" smooth="yes"/>
      <point x="260" y="-9"/>
      <point x="305" y="10"/>
      <point x="342" y="47" type="curve" smooth="yes"/>
      <point x="380" y="84"/>
      <point x="399" y="130"/>
      <point x="399" y="184" type="curve" smooth="yes"/>
      <point x="399" y="237"/>
      <point x="380" y="283"/>
      <point x="342" y="320" type="curve" smooth="yes"/>
      <point x="305" y="357"/>
      <point x="259" y="376"/>
      <point x="204" y="376" type="curve" smooth="yes"/>
      <point x="148" y="376"/>
      <point x="101" y="355"/>
      <point x="63" y="315" type="curve"/>
      <point x="63" y="412" type="line" smooth="yes"/>
      <point x="63" y="469"/>
      <point x="78" y="508"/>
      <point x="111" y="542" type="curve" smooth="yes"/>
      <point x="142" y="574"/>
      <point x="186" y="587"/>
    </contour>
    <contour>
      <point x="206" y="326" type="curve" smooth="yes"/>
      <point x="285" y="326"/>
      <point x="349" y="262"/>
      <point x="349" y="184" type="curve" smooth="yes"/>
      <point x="349" y="105"/>
      <point x="285" y="41"/>
      <point x="206" y="41" type="curve" smooth="yes"/>
      <point x="127" y="41"/>
      <point x="63" y="105"/>
      <point x="63" y="184" type="curve" smooth="yes"/>
      <point x="63" y="262"/>
      <point x="127" y="326"/>
    </contour>
  </outline>
</glyph>
<glyph name="eight" format="1">
  <advance width="408"/>
  <unicode hex="0038"/>
  <outline>
    <contour>
      <point x="204" y="643" type="curve" name="hr04" smooth="yes"/>
      <point x="159" y="643"/>
      <point x="122" y="627"/>
      <point x="91" y="596" type="curve" name="hr01" smooth="yes"/>
      <point x="61" y="565"/>
      <point x="45" y="528"/>
      <point x="45" y="483" type="curve" smooth="yes"/>
      <point x="45" y="445"/>
      <point x="56" y="412"/>
      <point x="77" y="386" type="curve" smooth="yes"/>
      <point x="87" y="373"/>
      <point x="99" y="362"/>
      <point x="113" y="353" type="curve"/>
      <point x="90" y="340"/>
      <point x="69" y="323"/>
      <point x="53" y="303" type="curve" name="hr02" smooth="yes"/>
      <point x="26" y="270"/>
      <point x="10" y="228"/>
      <point x="10" y="182" type="curve" smooth="yes"/>
      <point x="10" y="129"/>
      <point x="29" y="82"/>
      <point x="66" y="45" type="curve" smooth="yes"/>
      <point x="103" y="8"/>
      <point x="149" y="-11"/>
      <point x="203" y="-11" type="curve" smooth="yes"/>
      <point x="256" y="-11"/>
      <point x="303" y="8"/>
      <point x="340" y="45" type="curve" smooth="yes"/>
      <point x="377" y="82"/>
      <point x="396" y="129"/>
      <point x="396" y="182" type="curve" smooth="yes"/>
      <point x="396" y="225"/>
      <point x="382" y="264"/>
      <point x="358" y="296" type="curve" smooth="yes"/>
      <point x="339" y="321"/>
      <point x="315" y="340"/>
      <point x="294" y="352" type="curve" name="hr03"/>
      <point x="308" y="361"/>
      <point x="321" y="373"/>
      <point x="331" y="385" type="curve" smooth="yes"/>
      <point x="352" y="411"/>
      <point x="363" y="444"/>
      <point x="363" y="483" type="curve" smooth="yes"/>
      <point x="363" y="528"/>
      <point x="348" y="565"/>
      <point x="317" y="596" type="curve" smooth="yes"/>
      <point x="286" y="627"/>
      <point x="248" y="643"/>
    </contour>
    <contour>
      <point x="203" y="374" type="curve" smooth="yes"/>
      <point x="170" y="374"/>
      <point x="140" y="389"/>
      <point x="120" y="412" type="curve" name="hr05" smooth="yes"/>
      <point x="103" y="431"/>
      <point x="93" y="457"/>
      <point x="93" y="484" type="curve" smooth="yes"/>
      <point x="93" y="545"/>
      <point x="142" y="595"/>
      <point x="203" y="595" type="curve" smooth="yes"/>
      <point x="264" y="595"/>
      <point x="313" y="545"/>
      <point x="313" y="484" type="curve" smooth="yes"/>
      <point x="313" y="457"/>
      <point x="303" y="431"/>
      <point x="286" y="412" type="curve" smooth="yes"/>
      <point x="266" y="389"/>
      <point x="236" y="374"/>
    </contour>
    <contour>
      <point x="203" y="40" type="curve" smooth="yes"/>
      <point x="124" y="40"/>
      <point x="61" y="104"/>
      <point x="61" y="182" type="curve" smooth="yes"/>
      <point x="61" y="216"/>
      <point x="73" y="248"/>
      <point x="93" y="272" type="curve" smooth="yes"/>
      <point x="119" y="304"/>
      <point x="159" y="324"/>
      <point x="203" y="324" type="curve" smooth="yes"/>
      <point x="250" y="324"/>
      <point x="292" y="302"/>
      <point x="318" y="267" type="curve" smooth="yes"/>
      <point x="335" y="243"/>
      <point x="345" y="214"/>
      <point x="345" y="182" type="curve" smooth="yes"/>
      <point x="345" y="104"/>
      <point x="282" y="40"/>
    </contour>
  </outline>
</glyph>
<glyph name="colon" format="1">
  <advance width="99"/>
  <unicode hex="003A"/>
  <outline>
    <contour>
      <point x="79" y="130" type="curve" name="hr00" smooth="yes"/>
      <point x="79" y="147"/>
      <point x="65" y="160"/>
      <point x="49" y="160" type="curve" smooth="yes"/>
      <point x="32" y="160"/>
      <point x="18" y="147"/>
      <point x="18" y="130" type="curve" smooth="yes"/>
      <point x="18" y="113"/>
      <point x="32" y="100"/>
      <point x="49" y="100" type="curve" smooth="yes"/>
      <point x="65" y="100"/>
      <point x="79" y="113"/>
    </contour>
    <contour>
      <point x="79" y="349" type="curve" smooth="yes"/>
      <point x="79" y="366"/>
      <point x="65" y="379"/>
      <point x="49" y="379" type="curve" smooth="yes"/>
      <point x="32" y="379"/>
      <point x="18" y="366"/>
      <point x="18" y="349" type="curve" smooth="yes"/>
      <point x="18" y="332"/>
      <point x="32" y="319"/>
      <point x="49" y="319" type="curve" smooth="yes"/>
      <point x="65" y="319"/>
      <point x="79" y="332"/>
    </contour>
  </outline>
</glyph>
<glyph name="less" format="1">
  <advance width="321"/>
  <unicode hex="003C"/>
  <outline>
    <contour>
      <point x="304" y="107" type="line" name="hr00"/>
      <point x="85" y="324" type="line"/>
      <point x="304" y="543" type="line"/>
      <point x="268" y="577" type="line"/>
      <point x="16" y="325" type="line"/>
      <point x="268" y="72" type="line"/>
    </contour>
  </outline>
</glyph>
<glyph name="equal" format="1">
  <advance width="329"/>
  <unicode hex="003D"/>
  <outline>
    <contour>
      <point x="309" y="374" type="line" name="hr00"/>
      <point x="19" y="374" type="line"/>
      <point x="19" y="324" type="line"/>
      <point x="309" y="324" type="line"/>
    </contour>
    <contour>
      <point x="309" y="279" type="line"/>
      <point x="19" y="279" type="line"/>
      <point x="19" y="229" type="line"/>
      <point x="309" y="229" type="line"/>
    </contour>
  </outline>
</glyph>
<glyph name="F" format="1">
  <advance width="321"/>
  <unicode hex="0046"/>
  <outline>
    <contour>
      <point x="20" y="0" type="line" name="hr00"/>
      <point x="71" y="0" type="line"/>
      <point x="71" y="324" type="line"/>
      <point x="224" y="324" type="line"/>
      <point x="245" y="374" type="line"/>
      <point x="71" y="374" type="line"/>
      <point x="71" y="586" type="line"/>
      <point x="323" y="586" type="line"/>
      <point x="323" y="635" type="line"/>
      <point x="20" y="635" type="line"/>
    </contour>
  </outline>
</glyph>
<glyph name="M" format="1">
  <advance width="527"/>
  <unicode hex="004D"/>
  <outline>
    <contour>
      <point x="20" y="0" type="line"/>
      <point x="71" y="0" type="line"/>
      <point x="71" y="485" type="line"/>
      <point x="235" y="0" type="line"/>
      <point x="290" y="0" type="line"/>
      <point x="455" y="485" type="line"/>
      <point x="455" y="0" type="line"/>
      <point x="506" y="0" type="line"/>
      <point x="506" y="635" type="line"/>
      <point x="455" y="635" type="line"/>
      <point x="262" y="78" type="line" name="hr01"/>
      <point x="71" y="635" type="line"/>
      <point x="20" y="635" type="line"/>
    </contour>
  </outline>
</glyph>
<glyph name="R" format="1">
  <advance width="429"/>
  <unicode hex="0052"/>
  <outline>
    <contour>
      <point x="234" y="635" type="curve" name="hr00"/>
      <point x="20" y="635" type="line"/>
      <point x="20" y="0" type="line"/>
      <point x="71" y="0" type="line"/>
      <point x="71" y="222" type="line"/>
      <point x="234" y="222" type="line" smooth="yes"/>
      <point x="252" y="222"/>
      <point x="269" y="223"/>
      <point x="284" y="226" type="curve"/>
      <point x="363" y="0" type="line"/>
      <point x="414" y="0" type="line"/>
      <point x="330" y="240" type="line"/>
      <point x="386" y="267"/>
      <point x="414" y="326"/>
      <point x="414" y="429" type="curve" smooth="yes"/>
      <point x="414" y="585"/>
      <point x="349" y="635"/>
    </contour>
    <contour>
      <point x="238" y="272" type="curve"/>
      <point x="71" y="272" type="line"/>
      <point x="71" y="586" type="line"/>
      <point x="238" y="586" type="line" smooth="yes"/>
      <point x="309" y="586"/>
      <point x="363" y="557"/>
      <point x="363" y="429" type="curve" smooth="yes"/>
      <point x="363" y="291"/>
      <point x="307" y="272"/>
    </contour>
  </outline>
</glyph>
<glyph name="backslash" format="1">
  <advance width="371"/>
  <unicode hex="005C"/>
  <outline>
    <contour>
      <point x="64" y="741" type="line" name="hr00"/>
      <point x="13" y="741" type="line"/>
      <point x="303" y="-103" type="line"/>
      <point x="358" y="-103" type="line"/>
    </contour>
  </outline>
</glyph>
<glyph name="bracketright" format="1">
  <advance width="180"/>
  <unicode hex="005D"/>
  <outline>
    <contour>
      <point x="159" y="741" type="line" name="hr00"/>
      <point x="13" y="741" type="line"/>
      <point x="13" y="700" type="line"/>
      <point x="108" y="691" type="line"/>
      <point x="108" y="-54" type="line"/>
      <point x="13" y="-63" type="line"/>
      <point x="13" y="-103" type="line"/>
      <point x="159" y="-103" type="line"/>
    </contour>
  </outline>
</glyph>
<glyph name="asciicircum" format="1">
  <advance width="380"/>
  <unicode hex="005E"/>
  <outline>
    <contour>
      <point x="318" y="700" type="line" name="hr00"/>
      <point x="202" y="815" type="line"/>
      <point x="82" y="699" type="line"/>
      <point x="117" y="664" type="line"/>
      <point x="202" y="746" type="line"/>
      <point x="283" y="666" type="line"/>
    </contour>
  </outline>
</glyph>
<glyph name="f" format="1">
  <advance width="193"/>
  <unicode hex="0066"/>
  <outline>
    <contour>
      <point x="178" y="596" type="curve" name="hr00"/>
      <point x="186" y="641" type="line"/>
      <point x="176" y="644"/>
      <point x="165" y="644"/>
      <point x="154" y="644" type="curve" smooth="yes"/>
      <point x="94" y="645"/>
      <point x="19" y="612"/>
      <point x="19" y="498" type="curve" smooth="yes"/>
      <point x="19" y="0" type="line"/>
      <point x="70" y="0" type="line"/>
      <point x="70" y="405" type="line"/>
      <point x="153" y="405" type="line"/>
      <point x="174" y="453" type="line"/>
      <point x="70" y="453" type="line"/>
      <point x="70" y="468"/>
      <point x="70" y="483"/>
      <point x="70" y="498" type="curve" smooth="yes"/>
      <point x="70" y="565"/>
      <point x="99" y="598"/>
      <point x="155" y="598" type="curve" smooth="yes"/>
      <point x="162" y="598"/>
      <point x="170" y="597"/>
    </contour>
  </outline>
</glyph>
<glyph name="i" format="1">
  <advance width="98"/>
  <unicode hex="0069"/>
  <outline>
    <contour>
      <point x="74" y="454" type="line"/>
      <point x="23" y="454" type="line"/>
      <point x="23" y="0" type="line"/>
      <point x="74" y="0" type="line"/>
    </contour>
    <contour>
      <point x="49" y="644" type="curve" name="hr01" smooth="yes"/>
      <point x="32" y="644"/>
      <point x="18" y="630"/>
      <point x="18" y="613" type="curve" smooth="yes"/>
      <point x="18" y="596"/>
      <point x="32" y="583"/>
      <point x="49" y="583" type="curve" smooth="yes"/>
      <point x="65" y="583"/>
      <point x="79" y="596"/>
      <point x="79" y="613" type="curve" smooth="yes"/>
      <point x="79" y="630"/>
      <point x="65" y="644"/>
    </contour>
  </outline>
</glyph>
<glyph name="j" format="1">
  <advance width="144"/>
  <unicode hex="006A"/>
  <outline>
    <contour>
      <point x="119" y="-57" type="curve"/>
      <point x="119" y="454" type="line"/>
      <point x="10" y="454" type="line"/>
      <point x="10" y="406" type="line"/>
      <point x="68" y="406" type="line"/>
      <point x="68" y="-56" type="line" smooth="yes"/>
      <point x="68" y="-82"/>
      <point x="63" y="-103"/>
      <point x="51" y="-119" type="curve" smooth="yes"/>
      <point x="41" y="-133"/>
      <point x="27" y="-144"/>
      <point x="8" y="-151" type="curve"/>
      <point x="23" y="-190" type="line"/>
      <point x="53" y="-180"/>
      <point x="74" y="-168"/>
      <point x="90" y="-151" type="curve" smooth="yes"/>
      <point x="111" y="-128"/>
      <point x="119" y="-98"/>
    </contour>
    <contour>
      <point x="126" y="613" type="curve" name="hr01" smooth="yes"/>
      <point x="126" y="630"/>
      <point x="112" y="643"/>
      <point x="95" y="643" type="curve" smooth="yes"/>
      <point x="78" y="643"/>
      <point x="65" y="630"/>
      <point x="65" y="613" type="curve" smooth="yes"/>
      <point x="65" y="596"/>
      <point x="78" y="583"/>
      <point x="95" y="583" type="curve" smooth="yes"/>
      <point x="112" y="583"/>
      <point x="126" y="596"/>
    </contour>
  </outline>
</glyph>
<glyph name="l" format="1">
  <advance width="91"/>
  <unicode hex="006C"/>
  <outline>
    <contour>
      <point x="70" y="635" type="line" name="hr00"/>
      <point x="20" y="635" type="line"/>
      <point x="20" y="0" type="line"/>
      <point x="70" y="0" type="line"/>
    </contour>
  </outline>
</glyph>
<glyph name="q" format="1">
  <advance width="364"/>
  <unicode hex="0071"/>
  <outline>
    <contour>
      <point x="295" y="56" type="curve" name="hr00"/>
      <point x="295" y="-180" type="line"/>
      <point x="346" y="-192" type="line"/>
      <point x="346" y="453" type="line"/>
      <point x="295" y="453" type="line"/>
      <point x="295" y="411" type="line"/>
      <point x="255" y="444"/>
      <point x="209" y="461"/>
      <point x="165" y="463" type="curve" smooth="yes"/>
      <point x="66" y="467"/>
      <point x="11" y="410"/>
      <point x="11" y="314" type="curve" smooth="yes"/>
      <point x="11" y="160" type="line" smooth="yes"/>
      <point x="11" y="49"/>
      <point x="65" y="-10"/>
      <point x="166" y="-10" type="curve" smooth="yes"/>
      <point x="221" y="-10"/>
      <point x="274" y="19"/>
    </contour>
    <contour>
      <point x="295" y="357" type="curve"/>
      <point x="295" y="157" type="line" smooth="yes"/>
      <point x="295" y="80"/>
      <point x="238" y="37"/>
      <point x="169" y="37" type="curve" smooth="yes"/>
      <point x="100" y="37"/>
      <point x="62" y="76"/>
      <point x="62" y="152" type="curve" smooth="yes"/>
      <point x="62" y="312" type="line" smooth="yes"/>
      <point x="62" y="394"/>
      <point x="119" y="421"/>
      <point x="176" y="417" type="curve" smooth="yes"/>
      <point x="216" y="414"/>
      <point x="268" y="395"/>
    </contour>
  </outline>
</glyph>
<glyph name="braceleft" format="1">
  <advance width="223"/>
  <unicode hex="007B"/>
  <outline>
    <contour>
      <point x="141" y="468" type="curve" name="hr00"/>
      <point x="141" y="571" type="line" smooth="yes"/>
      <point x="141" y="652"/>
      <point x="182" y="688"/>
      <point x="209" y="702" type="curve"/>
      <point x="189" y="745" type="line"/>
      <point x="185" y="744"/>
      <point x="89" y="717"/>
      <point x="89" y="571" type="curve" smooth="yes"/>
      <point x="89" y="468" type="line" smooth="yes"/>
      <point x="89" y="417"/>
      <point x="84" y="371"/>
      <point x="26" y="327" type="curve" smooth="yes"/>
      <point x="16" y="320" type="line"/>
      <point x="26" y="313" type="line" smooth="yes"/>
      <point x="84" y="268"/>
      <point x="89" y="223"/>
      <point x="89" y="172" type="curve" smooth="yes"/>
      <point x="89" y="69" type="line" smooth="yes"/>
      <point x="89" y="-77"/>
      <point x="184" y="-104"/>
      <point x="189" y="-106" type="curve"/>
      <point x="210" y="-61" type="line"/>
      <point x="182" y="-47"/>
      <point x="141" y="-12"/>
      <point x="141" y="69" type="curve" smooth="yes"/>
      <point x="141" y="172" type="line" smooth="yes"/>
      <point x="141" y="223"/>
      <point x="136" y="273"/>
      <point x="80" y="320" type="curve"/>
      <point x="136" y="367"/>
      <point x="141" y="417"/>
    </contour>
  </outline>
</glyph>
<glyph name="bar" format="1">
  <advance width="92"/>
  <unicode hex="007C"/>
  <outline>
    <contour>
      <point x="71" y="741" type="line" name="hr00"/>
      <point x="21" y="741" type="line"/>
      <point x="21" y="-103" type="line"/>
      <point x="71" y="-103" type="line"/>
    </contour>
  </outline>
</glyph>
<glyph name="ordfeminine" format="1">
  <advance width="261"/>
  <unicode hex="00AA"/>
  <outline>
    <contour>
      <point x="247" y="354" type="curve" name="hr00"/>
      <point x="247" y="404"/>
      <point x="247" y="453"/>
      <point x="247" y="503" type="curve" smooth="yes"/>
      <point x="247" y="558"/>
      <point x="234" y="594"/>
      <point x="208" y="615" type="curve" smooth="yes"/>
      <point x="184" y="635"/>
      <point x="147" y="643"/>
      <point x="97" y="643" type="curve"/>
      <point x="94" y="604" type="line"/>
      <point x="127" y="604"/>
      <point x="156" y="601"/>
      <point x="172" y="590" type="curve" smooth="yes"/>
      <point x="193" y="577"/>
      <point x="200" y="558"/>
      <point x="200" y="537" type="curve"/>
      <point x="160" y="560"/>
      <point x="126" y="571"/>
      <point x="98" y="572" type="curve" smooth="yes"/>
      <point x="36" y="574"/>
      <point x="3" y="530"/>
      <point x="3" y="470" type="curve" smooth="yes"/>
      <point x="3" y="373"/>
      <point x="58" y="345"/>
      <point x="137" y="344" type="curve" smooth="yes"/>
      <point x="170" y="344"/>
      <point x="207" y="348"/>
    </contour>
    <contour>
      <point x="198" y="492" type="curve"/>
      <point x="198" y="389" type="line"/>
      <point x="198" y="389"/>
      <point x="124" y="378"/>
      <point x="89" y="393" type="curve" smooth="yes"/>
      <point x="60" y="406"/>
      <point x="45" y="429"/>
      <point x="45" y="465" type="curve" smooth="yes"/>
      <point x="45" y="512"/>
      <point x="65" y="529"/>
      <point x="94" y="529" type="curve" smooth="yes"/>
      <point x="123" y="529"/>
      <point x="162" y="514"/>
    </contour>
  </outline>
</glyph>
<glyph name="degree" format="1">
  <advance width="295"/>
  <unicode hex="00B0"/>
  <outline>
    <contour>
      <point x="279" y="512" type="curve" name="hr00" smooth="yes"/>
      <point x="279" y="585"/>
      <point x="220" y="644"/>
      <point x="147" y="644" type="curve" smooth="yes"/>
      <point x="74" y="644"/>
      <point x="15" y="585"/>
      <point x="15" y="512" type="curve" smooth="yes"/>
      <point x="15" y="439"/>
      <point x="74" y="380"/>
      <point x="147" y="380" type="curve" smooth="yes"/>
      <point x="220" y="380"/>
      <point x="279" y="439"/>
    </contour>
    <contour>
      <point x="147" y="598" type="curve" smooth="yes"/>
      <point x="194" y="598"/>
      <point x="233" y="559"/>
      <point x="233" y="512" type="curve" smooth="yes"/>
      <point x="233" y="465"/>
      <point x="194" y="426"/>
      <point x="147" y="426" type="curve" smooth="yes"/>
      <point x="100" y="426"/>
      <point x="61" y="465"/>
      <point x="61" y="512" type="curve" smooth="yes"/>
      <point x="61" y="559"/>
      <point x="100" y="598"/>
    </contour>
  </outline>
</glyph>
<glyph name="Agrave" format="1">
  <advance width="467"/>
  <unicode hex="00C0"/>
  <outline>
    <contour>
      <point x="208" y="635" type="line" name="hr00"/>
      <point x="5" y="0" type="line"/>
      <point x="59" y="0" type="line"/>
      <point x="130" y="222" type="line"/>
      <point x="336" y="222" type="line"/>
      <point x="409" y="0" type="line"/>
      <point x="463" y="0" type="line"/>
      <point x="256" y="635" type="line"/>
    </contour>
    <contour>
      <point x="323" y="272" type="line"/>
      <point x="144" y="272" type="line"/>
      <point x="232" y="556" type="line"/>
    </contour>
    <contour>
      <point x="167" y="745" type="curve"/>
      <point x="215" y="673" type="line"/>
      <point x="247" y="673" type="line"/>
      <point x="213" y="771" type="line" smooth="yes"/>
      <point x="207" y="787"/>
      <point x="189" y="797"/>
      <point x="173" y="788" type="curve"/>
      <point x="156" y="780"/>
      <point x="155" y="758"/>
    </contour>
  </outline>
</glyph>
<glyph name="Ecircumflex" format="1">
  <advance width="335"/>
  <unicode hex="00CA"/>
  <outline>
    <contour>
      <point x="321" y="45" type="line" name="hr00"/>
      <point x="71" y="45" type="line"/>
      <point x="71" y="324" type="line"/>
      <point x="227" y="324" type="line"/>
      <point x="244" y="374" type="line"/>
      <point x="71" y="374" type="line"/>
      <point x="71" y="587" type="line"/>
      <point x="323" y="587" type="line"/>
      <point x="323" y="635" type="line"/>
      <point x="20" y="635" type="line"/>
      <point x="20" y="0" type="line"/>
      <point x="321" y="0" type="line"/>
    </contour>
    <contour>
      <point x="173" y="757" type="line"/>
      <point x="254" y="677" type="line"/>
      <point x="290" y="711" type="line"/>
      <point x="173" y="826" type="line"/>
      <point x="53" y="710" type="line"/>
      <point x="89" y="675" type="line"/>
    </contour>
  </outline>
</glyph>
<glyph name="Icircumflex" format="1">
  <advance width="213"/>
  <unicode hex="00CE"/>
  <outline>
    <contour>
      <point x="83" y="0" type="line" name="hr00"/>
      <point x="134" y="0" type="line"/>
      <point x="134" y="635" type="line"/>
      <point x="22" y="635" type="line"/>
      <point x="22" y="590" type="line"/>
      <point x="83" y="588" type="line"/>
    </contour>
    <contour>
      <point x="110" y="752" type="line"/>
      <point x="191" y="673" type="line"/>
      <point x="226" y="707" type="line"/>
      <point x="110" y="821" type="line"/>
      <point x="-10" y="706" type="line"/>
      <point x="25" y="671" type="line"/>
    </contour>
  </outline>
</glyph>
<glyph name="Eth" format="1">
  <advance width="416"/>
  <unicode hex="00D0"/>
  <outline>
    <contour>
      <point x="191" y="635" type="curve" name="hr00"/>
      <point x="20" y="635" type="line"/>
      <point x="20" y="0" type="line"/>
      <point x="209" y="0" type="line" smooth="yes"/>
      <point x="337" y="0"/>
      <point x="401" y="61"/>
      <point x="401" y="181" type="curve" smooth="yes"/>
      <point x="401" y="430" type="line" smooth="yes"/>
      <point x="401" y="554"/>
      <point x="327" y="635"/>
    </contour>
    <contour>
      <point x="194" y="45" type="curve"/>
      <point x="71" y="45" type="line"/>
      <point x="71" y="326" type="line"/>
      <point x="243" y="326" type="line"/>
      <point x="256" y="375" type="line"/>
      <point x="71" y="375" type="line"/>
      <point x="71" y="589" type="line"/>
      <point x="200" y="589" type="line" smooth="yes"/>
      <point x="306" y="589"/>
      <point x="350" y="522"/>
      <point x="350" y="444" type="curve" smooth="yes"/>
      <point x="350" y="172" type="line" smooth="yes"/>
      <point x="350" y="88"/>
      <point x="298" y="45"/>
    </contour>
  </outline>
</glyph>
<glyph name="Otilde" format="1">
  <advance width="411"/>
  <unicode hex="00D5"/>
  <outline>
    <contour>
      <point x="14" y="460" type="curve"/>
      <point x="14" y="168" type="line" smooth="yes"/>
      <point x="14" y="51"/>
      <point x="98" y="-10"/>
      <point x="205" y="-10" type="curve" smooth="yes"/>
      <point x="317" y="-10"/>
      <point x="395" y="58"/>
      <point x="395" y="168" type="curve" smooth="yes"/>
      <point x="395" y="459" type="line" smooth="yes"/>
      <point x="395" y="577"/>
      <point x="326" y="649"/>
      <point x="206" y="649" type="curve" smooth="yes"/>
      <point x="86" y="649"/>
      <point x="14" y="584"/>
    </contour>
    <contour>
      <point x="65" y="169" type="curve"/>
      <point x="65" y="468" type="line" smooth="yes"/>
      <point x="65" y="556"/>
      <point x="120" y="601"/>
      <point x="204" y="601" type="curve" smooth="yes"/>
      <point x="289" y="601"/>
      <point x="345" y="556"/>
      <point x="345" y="468" type="curve" smooth="yes"/>
      <point x="345" y="169" type="line" smooth="yes"/>
      <point x="345" y="80"/>
      <point x="287" y="38"/>
      <point x="204" y="38" type="curve" smooth="yes"/>
      <point x="124" y="38"/>
      <point x="65" y="82"/>
    </contour>
    <contour>
      <point x="322" y="704" type="curve" name="hr01"/>
      <point x="303" y="747" type="line"/>
      <point x="291" y="737"/>
      <point x="273" y="728"/>
      <point x="255" y="729" type="curve"/>
      <point x="243" y="728"/>
      <point x="201" y="752"/>
      <point x="157" y="752" type="curve" name="hr02" smooth="yes"/>
      <point x="132" y="752"/>
      <point x="107" y="745"/>
      <point x="86" y="723" type="curve"/>
      <point x="106" y="681" type="line"/>
      <point x="120" y="691"/>
      <point x="130" y="698"/>
      <point x="148" y="699" type="curve" smooth="yes"/>
      <point x="175" y="701"/>
      <point x="216" y="677"/>
      <point x="257" y="677" type="curve" name="hr03" smooth="yes"/>
      <point x="279" y="677"/>
      <point x="301" y="683"/>
    </contour>
  </outline>
</glyph>
<glyph name="aacute" format="1">
  <advance width="372"/>
  <unicode hex="00E1"/>
  <outline>
    <contour>
      <point x="306" y="317" type="curve" name="hr02"/>
      <point x="264" y="341"/>
      <point x="206" y="365"/>
      <point x="147" y="365" type="curve" smooth="yes"/>
      <point x="74" y="365"/>
      <point x="8" y="330"/>
      <point x="8" y="228" type="curve" smooth="yes"/>
      <point x="8" y="203"/>
      <point x="8" y="178"/>
      <point x="8" y="153" type="curve" smooth="yes"/>
      <point x="8" y="19"/>
      <point x="97" y="-13"/>
      <point x="214" y="-9" type="curve" smooth="yes"/>
      <point x="259" y="-8"/>
      <point x="357" y="0"/>
      <point x="357" y="0" type="curve" name="hr01"/>
      <point x="357" y="87"/>
      <point x="357" y="174"/>
      <point x="357" y="261" type="curve" smooth="yes"/>
      <point x="357" y="341"/>
      <point x="350" y="404"/>
      <point x="293" y="436" type="curve" smooth="yes"/>
      <point x="255" y="458"/>
      <point x="210" y="461"/>
      <point x="168" y="461" type="curve"/>
      <point x="166" y="422" type="line"/>
      <point x="200" y="422"/>
      <point x="231" y="419"/>
      <point x="254" y="408" type="curve" smooth="yes"/>
      <point x="287" y="393"/>
      <point x="306" y="367"/>
    </contour>
    <contour>
      <point x="306" y="275" type="curve"/>
      <point x="306" y="197"/>
      <point x="306" y="120"/>
      <point x="306" y="42" type="curve" name="hr03" smooth="yes"/>
      <point x="306" y="42"/>
      <point x="269" y="38"/>
      <point x="210" y="35" type="curve" name="hr04" smooth="yes"/>
      <point x="89" y="30"/>
      <point x="58" y="73"/>
      <point x="58" y="159" type="curve" smooth="yes"/>
      <point x="58" y="177"/>
      <point x="58" y="205"/>
      <point x="58" y="226" type="curve" smooth="yes"/>
      <point x="58" y="308"/>
      <point x="110" y="322"/>
      <point x="143" y="322" type="curve" smooth="yes"/>
      <point x="201" y="322"/>
      <point x="256" y="299"/>
    </contour>
    <contour>
      <point x="206" y="595" type="curve" name="hr05"/>
      <point x="172" y="498" type="line"/>
      <point x="204" y="498" type="line"/>
      <point x="252" y="570" type="line"/>
      <point x="264" y="583"/>
      <point x="262" y="604"/>
      <point x="246" y="613" type="curve" smooth="yes"/>
      <point x="230" y="622"/>
      <point x="212" y="612"/>
    </contour>
  </outline>
</glyph>
<glyph name="aogonek" format="1">
  <advance width="417"/>
  <unicode hex="0105"/>
  <outline>
    <contour>
      <point x="306" y="317" type="curve" name="hr02"/>
      <point x="264" y="341"/>
      <point x="206" y="365"/>
      <point x="147" y="365" type="curve" smooth="yes"/>
      <point x="74" y="365"/>
      <point x="8" y="330"/>
      <point x="8" y="228" type="curve" smooth="yes"/>
      <point x="8" y="203"/>
      <point x="8" y="178"/>
      <point x="8" y="153" type="curve" smooth="yes"/>
      <point x="8" y="19"/>
      <point x="97" y="-13"/>
      <point x="214" y="-9" type="curve" smooth="yes"/>
      <point x="259" y="-8"/>
      <point x="357" y="0"/>
      <point x="357" y="0" type="curve" name="hr01"/>
      <point x="357" y="87"/>
      <point x="357" y="174"/>
      <point x="357" y="261" type="curve" smooth="yes"/>
      <point x="357" y="341"/>
      <point x="350" y="404"/>
      <point x="293" y="436" type="curve" smooth="yes"/>
      <point x="255" y="458"/>
      <point x="210" y="461"/>
      <point x="168" y="461" type="curve"/>
      <point x="166" y="422" type="line"/>
      <point x="200" y="422"/>
      <point x="231" y="419"/>
      <point x="254" y="408" type="curve" smooth="yes"/>
      <point x="287" y="393"/>
      <point x="306" y="367"/>
    </contour>
    <contour>
      <point x="306" y="275" type="curve"/>
      <point x="306" y="197"/>
      <point x="306" y="120"/>
      <point x="306" y="42" type="curve" name="hr03" smooth="yes"/>
      <point x="306" y="42"/>
      <point x="269" y="38"/>
      <point x="210" y="35" type="curve" name="hr04" smooth="yes"/>
      <point x="89" y="30"/>
      <point x="58" y="73"/>
      <point x="58" y="159" type="curve" smooth="yes"/>
      <point x="58" y="177"/>
      <point x="58" y="205"/>
      <point x="58" y="226" type="curve" smooth="yes"/>
      <point x="58" y="308"/>
      <point x="110" y="322"/>
      <point x="143" y="322" type="curve" smooth="yes"/>
      <point x="201" y="322"/>
      <point x="256" y="299"/>
    </contour>
    <contour>
      <point x="284" y="-120" type="curve" smooth="yes"/>
      <point x="306" y="-82"/>
      <point x="327" y="-45"/>
      <point x="349" y="-7" type="curve"/>
      <point x="349" y="1" type="line"/>
      <point x="336" y="0"/>
      <point x="322" y="-1"/>
      <point x="309" y="-2" type="curve"/>
      <point x="309" y="-3"/>
      <point x="309" y="-5"/>
      <point x="309" y="-6" type="curve"/>
      <point x="251" y="-107" type="line" smooth="yes"/>
      <point x="214" y="-172"/>
      <point x="258" y="-236"/>
      <point x="338" y="-213" type="curve"/>
      <point x="355" y="-209"/>
      <point x="432" y="-182"/>
      <point x="433" y="-181" type="curve"/>
      <point x="417" y="-145" type="line"/>
      <point x="417" y="-145"/>
      <point x="379" y="-158"/>
      <point x="329" y="-175" type="curve" smooth="yes"/>
      <point x="284" y="-191"/>
      <point x="260" y="-162"/>
    </contour>
  </outline>
</glyph>
<glyph name="Ccircumflex" format="1">
  <advance width="352"/>
  <unicode hex="0108"/>
  <outline>
    <contour>
      <point x="305" y="579" type="curve" name="hr00"/>
      <point x="320" y="614" type="line"/>
      <point x="281" y="634"/>
      <point x="237" y="644"/>
      <point x="191" y="644" type="curve" smooth="yes"/>
      <point x="154" y="644"/>
      <point x="121" y="636"/>
      <point x="94" y="621" type="curve"/>
      <point x="41" y="588"/>
      <point x="15" y="536"/>
      <point x="15" y="457" type="curve" smooth="yes"/>
      <point x="15" y="166" type="line" smooth="yes"/>
      <point x="15" y="90"/>
      <point x="45" y="38"/>
      <point x="89" y="14" type="curve" smooth="yes"/>
      <point x="133" y="-9"/>
      <point x="177" y="-9"/>
      <point x="196" y="-9" type="curve" smooth="yes"/>
      <point x="242" y="-9"/>
      <point x="291" y="1"/>
      <point x="343" y="21" type="curve"/>
      <point x="332" y="63" type="line"/>
      <point x="280" y="45"/>
      <point x="236" y="36"/>
      <point x="200" y="36" type="curve" smooth="yes"/>
      <point x="158" y="36"/>
      <point x="129" y="44"/>
      <point x="108" y="59" type="curve" smooth="yes"/>
      <point x="76" y="82"/>
      <point x="66" y="120"/>
      <point x="66" y="168" type="curve" smooth="yes"/>
      <point x="66" y="465" type="line" smooth="yes"/>
      <point x="66" y="516"/>
      <point x="81" y="552"/>
      <point x="112" y="574" type="curve" smooth="yes"/>
      <point x="135" y="590"/>
      <point x="167" y="598"/>
      <point x="207" y="598" type="curve" smooth="yes"/>
      <point x="238" y="598"/>
      <point x="271" y="592"/>
    </contour>
    <contour>
      <point x="181" y="755" type="line"/>
      <point x="262" y="675" type="line"/>
      <point x="297" y="710" type="line"/>
      <point x="181" y="824" type="line"/>
      <point x="61" y="709" type="line"/>
      <point x="96" y="674" type="line"/>
    </contour>
  </outline>
</glyph>
<glyph name="Ccaron" format="1">
  <advance width="352"/>
  <unicode hex="010C"/>
  <outline>
    <contour>
      <point x="304" y="579" type="curve" name="hr00"/>
      <point x="319" y="614" type="line"/>
      <point x="280" y="634"/>
      <point x="236" y="644"/>
      <point x="190" y="644" type="curve" smooth="yes"/>
      <point x="153" y="644"/>
      <point x="120" y="636"/>
      <point x="93" y="621" type="curve"/>
      <point x="40" y="588"/>
      <point x="14" y="536"/>
      <point x="14" y="457" type="curve" smooth="yes"/>
      <point x="14" y="166" type="line" smooth="yes"/>
      <point x="14" y="90"/>
      <point x="44" y="38"/>
      <point x="88" y="14" type="curve" smooth="yes"/>
      <point x="132" y="-9"/>
      <point x="176" y="-9"/>
      <point x="195" y="-9" type="curve" smooth="yes"/>
      <point x="241" y="-9"/>
      <point x="290" y="1"/>
      <point x="342" y="21" type="curve"/>
      <point x="331" y="63" type="line"/>
      <point x="279" y="45"/>
      <point x="235" y="36"/>
      <point x="199" y="36" type="curve" smooth="yes"/>
      <point x="157" y="36"/>
      <point x="128" y="44"/>
      <point x="107" y="59" type="curve" smooth="yes"/>
      <point x="75" y="82"/>
      <point x="65" y="120"/>
      <point x="65" y="168" type="curve" smooth="yes"/>
      <point x="65" y="465" type="line" smooth="yes"/>
      <point x="65" y="516"/>
      <point x="80" y="552"/>
      <point x="111" y="574" type="curve" smooth="yes"/>
      <point x="134" y="590"/>
      <point x="166" y="598"/>
      <point x="206" y="598" type="curve" smooth="yes"/>
      <point x="237" y="598"/>
      <point x="270" y="592"/>
    </contour>
    <contour>
      <point x="60" y="786" type="line"/>
      <point x="176" y="672" type="line"/>
      <point x="296" y="788" type="line"/>
      <point x="261" y="822" type="line"/>
      <point x="176" y="741" type="line"/>
      <point x="95" y="821" type="line"/>
    </contour>
  </outline>
</glyph>
<glyph name="Dcaron" format="1">
  <advance width="415"/>
  <unicode hex="010E"/>
  <outline>
    <contour>
      <point x="190" y="635" type="curve" name="hr00"/>
      <point x="19" y="635" type="line"/>
      <point x="19" y="0" type="line"/>
      <point x="208" y="0" type="line" smooth="yes"/>
      <point x="336" y="0"/>
      <point x="400" y="61"/>
      <point x="400" y="181" type="curve" smooth="yes"/>
      <point x="400" y="430" type="line" smooth="yes"/>
      <point x="400" y="554"/>
      <point x="326" y="635"/>
    </contour>
    <contour>
      <point x="193" y="45" type="curve"/>
      <point x="70" y="45" type="line"/>
      <point x="70" y="589" type="line"/>
      <point x="199" y="589" type="line" smooth="yes"/>
      <point x="305" y="589"/>
      <point x="349" y="522"/>
      <point x="349" y="444" type="curve" smooth="yes"/>
      <point x="349" y="172" type="line" smooth="yes"/>
      <point x="349" y="88"/>
      <point x="297" y="45"/>
    </contour>
    <contour>
      <point x="61" y="790" type="line"/>
      <point x="178" y="675" type="line"/>
      <point x="297" y="791" type="line"/>
      <point x="262" y="826" type="line"/>
      <point x="178" y="744" type="line"/>
      <point x="96" y="824" type="line"/>
    </contour>
  </outline>
</glyph>
<glyph name="dslash" format="1">
  <advance width="412"/>
  <unicode hex="0111"/>
  <outline>
    <contour>
      <point x="360" y="0" type="curve" name="hr02"/>
      <point x="360" y="511" type="line"/>
      <point x="403" y="511" type="line"/>
      <point x="403" y="559" type="line"/>
      <point x="360" y="559" type="line"/>
      <point x="360" y="635" type="line"/>
      <point x="309" y="635" type="line"/>
      <point x="309" y="559" type="line"/>
      <point x="188" y="559" type="line"/>
      <point x="188" y="511" type="line"/>
      <point x="309" y="511" type="line"/>
      <point x="309" y="428" type="line"/>
      <point x="268" y="446"/>
      <point x="221" y="462"/>
      <point x="162" y="462" type="curve" smooth="yes"/>
      <point x="89" y="462"/>
      <point x="11" y="427"/>
      <point x="11" y="325" type="curve" smooth="yes"/>
      <point x="11" y="153" type="line" smooth="yes"/>
      <point x="11" y="19"/>
      <point x="100" y="-13"/>
      <point x="217" y="-9" type="curve" name="hr01" smooth="yes"/>
      <point x="262" y="-8"/>
      <point x="360" y="0"/>
    </contour>
    <contour>
      <point x="309" y="384" type="curve"/>
      <point x="309" y="42" type="line"/>
      <point x="309" y="42"/>
      <point x="272" y="38"/>
      <point x="214" y="35" type="curve" name="hr03" smooth="yes"/>
      <point x="92" y="30"/>
      <point x="61" y="73"/>
      <point x="61" y="159" type="curve" smooth="yes"/>
      <point x="61" y="322" type="line" smooth="yes"/>
      <point x="61" y="405"/>
      <point x="125" y="419"/>
      <point x="158" y="419" type="curve" smooth="yes"/>
      <point x="216" y="419"/>
      <point x="260" y="404"/>
    </contour>
  </outline>
</glyph>
<glyph name="Emacron" format="1">
  <advance width="334"/>
  <unicode hex="0112"/>
  <outline>
    <contour>
      <point x="320" y="45" type="line"/>
      <point x="70" y="45" type="line"/>
      <point x="70" y="324" type="line"/>
      <point x="226" y="324" type="line"/>
      <point x="243" y="374" type="line"/>
      <point x="70" y="374" type="line"/>
      <point x="70" y="587" type="line"/>
      <point x="322" y="587" type="line"/>
      <point x="322" y="635" type="line"/>
      <point x="19" y="635" type="line"/>
      <point x="19" y="0" type="line"/>
      <point x="320" y="0" type="line"/>
    </contour>
    <contour>
      <point x="271" y="728" type="line" name="hr01"/>
      <point x="71" y="728" type="line"/>
      <point x="71" y="676" type="line"/>
      <point x="271" y="676" type="line"/>
    </contour>
  </outline>
</glyph>
<glyph name="Ecaron" format="1">
  <advance width="334"/>
  <unicode hex="011A"/>
  <outline>
    <contour>
      <point x="320" y="45" type="line" name="hr00"/>
      <point x="70" y="45" type="line"/>
      <point x="70" y="324" type="line"/>
      <point x="226" y="324" type="line"/>
      <point x="243" y="374" type="line"/>
      <point x="70" y="374" type="line"/>
      <point x="70" y="587" type="line"/>
      <point x="322" y="587" type="line"/>
      <point x="322" y="635" type="line"/>
      <point x="19" y="635" type="line"/>
      <point x="19" y="0" type="line"/>
      <point x="320" y="0" type="line"/>
    </contour>
    <contour>
      <point x="50" y="792" type="line"/>
      <point x="166" y="678" type="line"/>
      <point x="286" y="793" type="line"/>
      <point x="251" y="828" type="line"/>
      <point x="166" y="747" type="line"/>
      <point x="85" y="827" type="line"/>
    </contour>
  </outline>
</glyph>
<glyph name="hbar" format="1">
  <advance width="397"/>
  <unicode hex="0127"/>
  <outline>
    <contour>
      <point x="98" y="423" type="curve" name="hr00"/>
      <point x="98" y="511" type="line"/>
      <point x="221" y="511" type="line"/>
      <point x="221" y="559" type="line"/>
      <point x="98" y="559" type="line"/>
      <point x="98" y="635" type="line"/>
      <point x="47" y="635" type="line"/>
      <point x="47" y="559" type="line"/>
      <point x="7" y="559" type="line"/>
      <point x="7" y="511" type="line"/>
      <point x="47" y="511" type="line"/>
      <point x="47" y="0" type="line"/>
      <point x="98" y="0" type="line"/>
      <point x="98" y="385" type="line"/>
      <point x="135" y="406"/>
      <point x="173" y="416"/>
      <point x="214" y="416" type="curve" smooth="yes"/>
      <point x="272" y="416"/>
      <point x="332" y="393"/>
      <point x="332" y="311" type="curve" smooth="yes"/>
      <point x="332" y="0" type="line"/>
      <point x="382" y="0" type="line"/>
      <point x="382" y="314" type="line" smooth="yes"/>
      <point x="382" y="409"/>
      <point x="324" y="462"/>
      <point x="224" y="462" type="curve" smooth="yes"/>
      <point x="179" y="462"/>
      <point x="133" y="447"/>
    </contour>
  </outline>
</glyph>
<glyph name="itilde" format="1">
  <advance width="232"/>
  <unicode hex="0129"/>
  <outline>
    <contour>
      <point x="139" y="454" type="line"/>
      <point x="88" y="454" type="line"/>
      <point x="88" y="0" type="line"/>
      <point x="139" y="0" type="line"/>
    </contour>
    <contour>
      <point x="232" y="521" type="curve"/>
      <point x="213" y="564" type="line"/>
      <point x="201" y="554"/>
      <point x="182" y="546"/>
      <point x="165" y="546" type="curve" smooth="yes"/>
      <point x="153" y="546"/>
      <point x="111" y="569"/>
      <point x="67" y="569" type="curve" name="hr01" smooth="yes"/>
      <point x="42" y="569"/>
      <point x="17" y="562"/>
      <point x="-4" y="540" type="curve"/>
      <point x="16" y="498" type="line"/>
      <point x="30" y="508"/>
      <point x="40" y="515"/>
      <point x="58" y="516" type="curve" smooth="yes"/>
      <point x="85" y="518"/>
      <point x="125" y="494"/>
      <point x="167" y="494" type="curve" name="hr02" smooth="yes"/>
      <point x="189" y="494"/>
      <point x="211" y="501"/>
    </contour>
  </outline>
</glyph>
<glyph name="Imacron" format="1">
  <advance width="193"/>
  <unicode hex="012A"/>
  <outline>
    <contour>
      <point x="72" y="0" type="line" name="hr00"/>
      <point x="123" y="0" type="line"/>
      <point x="123" y="635" type="line"/>
      <point x="11" y="635" type="line"/>
      <point x="11" y="590" type="line"/>
      <point x="72" y="588" type="line"/>
    </contour>
    <contour>
      <point x="197" y="726" type="line"/>
      <point x="-3" y="726" type="line"/>
      <point x="-3" y="673" type="line"/>
      <point x="197" y="673" type="line"/>
    </contour>
  </outline>
</glyph>
<glyph name="imacron" format="1">
  <advance width="207"/>
  <unicode hex="012B"/>
  <outline>
    <contour>
      <point x="127" y="454" type="line" name="hr00"/>
      <point x="77" y="454" type="line"/>
      <point x="77" y="0" type="line"/>
      <point x="127" y="0" type="line"/>
    </contour>
    <contour>
      <point x="202" y="547" type="line"/>
      <point x="2" y="547" type="line"/>
      <point x="2" y="495" type="line"/>
      <point x="202" y="495" type="line"/>
    </contour>
  </outline>
</glyph>
<glyph name="iogonek" format="1">
  <advance width="189"/>
  <unicode hex="012F"/>
  <outline>
    <contour>
      <point x="122" y="454" type="line" name="hr04"/>
      <point x="71" y="454" type="line"/>
      <point x="71" y="0" type="line"/>
      <point x="122" y="0" type="line"/>
    </contour>
    <contour>
      <point x="127" y="614" type="curve" name="hr01" smooth="yes"/>
      <point x="127" y="631"/>
      <point x="113" y="644"/>
      <point x="96" y="644" type="curve" smooth="yes"/>
      <point x="80" y="644"/>
      <point x="66" y="631"/>
      <point x="66" y="614" type="curve" smooth="yes"/>
      <point x="66" y="597"/>
      <point x="80" y="583"/>
      <point x="96" y="583" type="curve" smooth="yes"/>
      <point x="113" y="583"/>
      <point x="127" y="597"/>
    </contour>
    <contour>
      <point x="52" y="-116" type="curve" name="hr02"/>
      <point x="117" y="-4" type="line"/>
      <point x="117" y="4" type="line"/>
      <point x="77" y="2" type="line"/>
      <point x="77" y="-3" type="line"/>
      <point x="19" y="-104" type="line" name="hr03" smooth="yes"/>
      <point x="-18" y="-169"/>
      <point x="26" y="-233"/>
      <point x="106" y="-210" type="curve" smooth="yes"/>
      <point x="123" y="-205"/>
      <point x="199" y="-179"/>
      <point x="201" y="-178" type="curve"/>
      <point x="185" y="-142" type="line"/>
      <point x="185" y="-142"/>
      <point x="147" y="-155"/>
      <point x="97" y="-172" type="curve" smooth="yes"/>
      <point x="52" y="-188"/>
      <point x="28" y="-159"/>
    </contour>
  </outline>
</glyph>
<glyph name="Lcaron" format="1">
  <advance width="406"/>
  <unicode hex="013D"/>
  <outline>
    <contour>
      <point x="401" y="45" type="line" name="hr00"/>
      <point x="124" y="45" type="line"/>
      <point x="124" y="635" type="line"/>
      <point x="73" y="635" type="line"/>
      <point x="73" y="0" type="line"/>
      <point x="401" y="0" type="line"/>
    </contour>
    <contour>
      <point x="-18" y="797" type="line"/>
      <point x="99" y="683" type="line"/>
      <point x="218" y="799" type="line"/>
      <point x="183" y="833" type="line"/>
      <point x="99" y="752" type="line"/>
      <point x="17" y="832" type="line"/>
    </contour>
  </outline>
</glyph>
<glyph name="lcaron" format="1">
  <advance width="199"/>
  <unicode hex="013E"/>
  <outline>
    <contour>
      <point x="124" y="635" type="line" name="hr00"/>
      <point x="74" y="635" type="line"/>
      <point x="74" y="0" type="line"/>
      <point x="124" y="0" type="line"/>
    </contour>
    <contour>
      <point x="-19" y="789" type="line"/>
      <point x="97" y="675" type="line"/>
      <point x="217" y="790" type="line"/>
      <point x="182" y="825" type="line"/>
      <point x="97" y="744" type="line"/>
      <point x="16" y="823" type="line"/>
    </contour>
  </outline>
</glyph>
<glyph name="Nacute" format="1">
  <advance width="485"/>
  <unicode hex="0143"/>
  <outline>
    <contour>
      <point x="414" y="93" type="line" name="hr00"/>
      <point x="70" y="635" type="line"/>
      <point x="19" y="635" type="line"/>
      <point x="19" y="0" type="line"/>
      <point x="70" y="0" type="line"/>
      <point x="70" y="541" type="line"/>
      <point x="414" y="0" type="line"/>
      <point x="465" y="0" type="line"/>
      <point x="465" y="635" type="line"/>
      <point x="414" y="635" type="line"/>
    </contour>
    <contour>
      <point x="255" y="780" type="curve"/>
      <point x="220" y="683" type="line"/>
      <point x="253" y="683" type="line"/>
      <point x="301" y="755" type="line"/>
      <point x="312" y="768"/>
      <point x="311" y="789"/>
      <point x="295" y="798" type="curve" smooth="yes"/>
      <point x="279" y="807"/>
      <point x="260" y="797"/>
    </contour>
  </outline>
</glyph>
<glyph name="nacute" format="1">
  <advance width="366"/>
  <unicode hex="0144"/>
  <outline>
    <contour>
      <point x="301" y="311" type="curve" name="hr00"/>
      <point x="301" y="0" type="line"/>
      <point x="351" y="0" type="line"/>
      <point x="351" y="314" type="line" smooth="yes"/>
      <point x="351" y="409"/>
      <point x="293" y="462"/>
      <point x="193" y="462" type="curve" smooth="yes"/>
      <point x="148" y="462"/>
      <point x="102" y="447"/>
      <point x="67" y="423" type="curve"/>
      <point x="67" y="454" type="line"/>
      <point x="16" y="454" type="line"/>
      <point x="16" y="0" type="line"/>
      <point x="67" y="0" type="line"/>
      <point x="67" y="385" type="line"/>
      <point x="104" y="406"/>
      <point x="142" y="416"/>
      <point x="183" y="416" type="curve" smooth="yes"/>
      <point x="241" y="416"/>
      <point x="301" y="393"/>
    </contour>
    <contour>
      <point x="202" y="595" type="curve"/>
      <point x="167" y="498" type="line"/>
      <point x="200" y="498" type="line"/>
      <point x="248" y="570" type="line"/>
      <point x="259" y="583"/>
      <point x="258" y="604"/>
      <point x="242" y="613" type="curve" smooth="yes"/>
      <point x="226" y="622"/>
      <point x="207" y="612"/>
    </contour>
  </outline>
</glyph>
<glyph name="Ncommaaccent" format="1">
  <advance width="487"/>
  <unicode hex="0145"/>
  <outline>
    <contour>
      <point x="415" y="93" type="line" name="hr00"/>
      <point x="71" y="635" type="line"/>
      <point x="20" y="635" type="line"/>
      <point x="20" y="0" type="line"/>
      <point x="71" y="0" type="line"/>
      <point x="71" y="541" type="line"/>
      <point x="415" y="0" type="line"/>
      <point x="466" y="0" type="line"/>
      <point x="466" y="635" type="line"/>
      <point x="415" y="635" type="line"/>
    </contour>
    <contour>
      <point x="211" y="-180" type="curve"/>
      <point x="227" y="-191" type="line"/>
      <point x="244" y="-174"/>
      <point x="274" y="-139"/>
      <point x="274" y="-82" type="curve" smooth="yes"/>
      <point x="274" y="-64"/>
      <point x="261" y="-51"/>
      <point x="244" y="-51" type="curve" smooth="yes"/>
      <point x="227" y="-51"/>
      <point x="214" y="-65"/>
      <point x="214" y="-82" type="curve" smooth="yes"/>
      <point x="214" y="-97"/>
      <point x="225" y="-109"/>
      <point x="239" y="-112" type="curve"/>
      <point x="237" y="-131"/>
      <point x="230" y="-156"/>
    </contour>
  </outline>
</glyph>
<glyph name="Racute" format="1">
  <advance width="428"/>
  <unicode hex="0154"/>
  <outline>
    <contour>
      <point x="206" y="772" type="curve" name="hr00"/>
      <point x="172" y="675" type="line"/>
      <point x="204" y="675" type="line"/>
      <point x="252" y="747" type="line"/>
      <point x="264" y="760"/>
      <point x="262" y="781"/>
      <point x="246" y="790" type="curve" smooth="yes"/>
      <point x="230" y="799"/>
      <point x="212" y="789"/>
    </contour>
    <contour>
      <point x="233" y="635" type="curve"/>
      <point x="19" y="635" type="line"/>
      <point x="19" y="0" type="line"/>
      <point x="70" y="0" type="line"/>
      <point x="70" y="222" type="line"/>
      <point x="233" y="222" type="line" smooth="yes"/>
      <point x="251" y="222"/>
      <point x="268" y="223"/>
      <point x="283" y="226" type="curve"/>
      <point x="362" y="0" type="line"/>
      <point x="413" y="0" type="line"/>
      <point x="329" y="240" type="line"/>
      <point x="385" y="267"/>
      <point x="413" y="326"/>
      <point x="413" y="429" type="curve" smooth="yes"/>
      <point x="413" y="585"/>
      <point x="348" y="635"/>
    </contour>
    <contour>
      <point x="237" y="272" type="curve"/>
      <point x="70" y="272" type="line"/>
      <point x="70" y="586" type="line"/>
      <point x="237" y="586" type="line" smooth="yes"/>
      <point x="308" y="586"/>
      <point x="362" y="557"/>
      <point x="362" y="429" type="curve" smooth="yes"/>
      <point x="362" y="291"/>
      <point x="306" y="272"/>
    </contour>
  </outline>
</glyph>
<glyph name="Rcaron" format="1">
  <advance width="428"/>
  <unicode hex="0158"/>
  <outline>
    <contour>
      <point x="98" y="789" type="line" name="hr00"/>
      <point x="214" y="675" type="line"/>
      <point x="334" y="790" type="line"/>
      <point x="299" y="825" type="line"/>
      <point x="214" y="744" type="line"/>
      <point x="133" y="824" type="line"/>
    </contour>
    <contour>
      <point x="233" y="635" type="curve"/>
      <point x="19" y="635" type="line"/>
      <point x="19" y="0" type="line"/>
      <point x="70" y="0" type="line"/>
      <point x="70" y="222" type="line"/>
      <point x="233" y="222" type="line" smooth="yes"/>
      <point x="251" y="222"/>
      <point x="268" y="223"/>
      <point x="283" y="226" type="curve"/>
      <point x="362" y="0" type="line"/>
      <point x="413" y="0" type="line"/>
      <point x="329" y="240" type="line"/>
      <point x="385" y="267"/>
      <point x="413" y="326"/>
      <point x="413" y="429" type="curve" smooth="yes"/>
      <point x="413" y="585"/>
      <point x="348" y="635"/>
    </contour>
    <contour>
      <point x="237" y="272" type="curve"/>
      <point x="70" y="272" type="line"/>
      <point x="70" y="586" type="line"/>
      <point x="237" y="586" type="line" smooth="yes"/>
      <point x="308" y="586"/>
      <point x="362" y="557"/>
      <point x="362" y="429" type="curve" smooth="yes"/>
      <point x="362" y="291"/>
      <point x="306" y="272"/>
    </contour>
  </outline>
</glyph>
<glyph name="scaron" format="1">
  <advance width="351"/>
  <unicode hex="0161"/>
  <outline>
    <contour>
      <point x="279" y="399" type="curve" name="hr00"/>
      <point x="299" y="433" type="line"/>
      <point x="254" y="458"/>
      <point x="217" y="466"/>
      <point x="180" y="465" type="curve" smooth="yes"/>
      <point x="145" y="464"/>
      <point x="112" y="455"/>
      <point x="86" y="438" type="curve" smooth="yes"/>
      <point x="51" y="415"/>
      <point x="30" y="379"/>
      <point x="34" y="330" type="curve"/>
      <point x="38" y="295"/>
      <point x="58" y="271"/>
      <point x="84" y="253" type="curve" smooth="yes"/>
      <point x="111" y="235"/>
      <point x="144" y="222"/>
      <point x="176" y="210" type="curve" smooth="yes"/>
      <point x="207" y="198"/>
      <point x="237" y="187"/>
      <point x="258" y="171" type="curve" smooth="yes"/>
      <point x="278" y="156"/>
      <point x="290" y="138"/>
      <point x="290" y="111" type="curve" smooth="yes"/>
      <point x="290" y="87"/>
      <point x="276" y="66"/>
      <point x="255" y="52" type="curve" smooth="yes"/>
      <point x="236" y="39"/>
      <point x="209" y="31"/>
      <point x="180" y="31" type="curve" smooth="yes"/>
      <point x="153" y="31"/>
      <point x="129" y="36"/>
      <point x="108" y="44" type="curve" smooth="yes"/>
      <point x="79" y="56"/>
      <point x="56" y="73"/>
      <point x="38" y="91" type="curve"/>
      <point x="10" y="63" type="line"/>
      <point x="33" y="35"/>
      <point x="60" y="16"/>
      <point x="88" y="4" type="curve" smooth="yes"/>
      <point x="118" y="-9"/>
      <point x="150" y="-14"/>
      <point x="180" y="-15" type="curve" smooth="yes"/>
      <point x="216" y="-16"/>
      <point x="250" y="-7"/>
      <point x="277" y="10" type="curve" smooth="yes"/>
      <point x="315" y="33"/>
      <point x="340" y="72"/>
      <point x="337" y="122" type="curve" smooth="yes"/>
      <point x="335" y="155"/>
      <point x="320" y="180"/>
      <point x="299" y="199" type="curve" smooth="yes"/>
      <point x="272" y="223"/>
      <point x="234" y="238"/>
      <point x="198" y="251" type="curve" smooth="yes"/>
      <point x="170" y="262"/>
      <point x="142" y="272"/>
      <point x="121" y="284" type="curve" smooth="yes"/>
      <point x="100" y="296"/>
      <point x="85" y="311"/>
      <point x="81" y="331" type="curve" smooth="yes"/>
      <point x="76" y="363"/>
      <point x="89" y="386"/>
      <point x="111" y="400" type="curve" smooth="yes"/>
      <point x="130" y="413"/>
      <point x="155" y="420"/>
      <point x="182" y="421" type="curve" smooth="yes"/>
      <point x="215" y="422"/>
      <point x="251" y="415"/>
    </contour>
    <contour>
      <point x="60" y="607" type="line"/>
      <point x="176" y="493" type="line"/>
      <point x="296" y="608" type="line"/>
      <point x="261" y="643" type="line"/>
      <point x="176" y="562" type="line"/>
      <point x="95" y="641" type="line"/>
    </contour>
  </outline>
</glyph>
<glyph name="ogonek" format="1">
  <advance width="335"/>
  <unicode hex="02DB"/>
  <outline>
    <contour>
      <point x="142" y="10" type="line" name="hr00"/>
      <point x="102" y="7" type="line"/>
      <point x="102" y="3" type="line"/>
      <point x="44" y="-98" type="line" smooth="yes"/>
      <point x="7" y="-164"/>
      <point x="51" y="-228"/>
      <point x="132" y="-205" type="curve" smooth="yes"/>
      <point x="149" y="-200"/>
      <point x="225" y="-173"/>
      <point x="226" y="-172" type="curve"/>
      <point x="210" y="-136" type="line"/>
      <point x="210" y="-136"/>
      <point x="172" y="-149"/>
      <point x="122" y="-167" type="curve" smooth="yes"/>
      <point x="77" y="-182"/>
      <point x="54" y="-153"/>
      <point x="77" y="-111" type="curve"/>
      <point x="142" y="2" type="line"/>
    </contour>
  </outline>
</glyph>
<glyph name="hungarumlaut" format="1">
  <advance width="328"/>
  <unicode hex="02DD"/>
  <outline>
    <contour>
      <point x="69" y="598" type="line" name="hr00"/>
      <point x="80" y="612"/>
      <point x="79" y="633"/>
      <point x="63" y="642" type="curve" smooth="yes"/>
      <point x="47" y="651"/>
      <point x="28" y="641"/>
      <point x="23" y="624" type="curve"/>
      <point x="-12" y="527" type="line"/>
      <point x="20" y="527" type="line"/>
    </contour>
    <contour>
      <point x="170" y="598" type="line"/>
      <point x="182" y="612"/>
      <point x="180" y="633"/>
      <point x="164" y="642" type="curve" smooth="yes"/>
      <point x="148" y="651"/>
      <point x="130" y="641"/>
      <point x="124" y="624" type="curve" smooth="yes"/>
      <point x="90" y="527" type="line"/>
      <point x="122" y="527" type="line"/>
    </contour>
  </outline>
</glyph>
<glyph name="Alphatonos" format="1">
  <advance width="468"/>
  <unicode hex="0386"/>
  <outline>
    <contour>
      <point x="209" y="635" type="line" name="hr00"/>
      <point x="6" y="0" type="line"/>
      <point x="60" y="0" type="line"/>
      <point x="131" y="222" type="line"/>
      <point x="337" y="222" type="line"/>
      <point x="410" y="0" type="line"/>
      <point x="464" y="0" type="line"/>
      <point x="257" y="635" type="line"/>
    </contour>
    <contour>
      <point x="324" y="272" type="line"/>
      <point x="145" y="272" type="line"/>
      <point x="233" y="556" type="line"/>
    </contour>
    <contour>
      <point x="153" y="732" type="curve"/>
      <point x="119" y="635" type="line"/>
      <point x="151" y="635" type="line"/>
      <point x="199" y="706" type="line"/>
      <point x="211" y="720"/>
      <point x="209" y="741"/>
      <point x="193" y="750" type="curve" smooth="yes"/>
      <point x="177" y="759"/>
      <point x="159" y="749"/>
    </contour>
  </outline>
</glyph>
<glyph name="iotadieresistonos" format="1">
  <advance width="207"/>
  <unicode hex="0390"/>
  <outline>
    <contour>
      <point x="125" y="454" type="line"/>
      <point x="74" y="454" type="line"/>
      <point x="74" y="0" type="line"/>
      <point x="125" y="0" type="line"/>
    </contour>
    <contour>
      <point x="113" y="685" type="curve" name="hr01"/>
      <point x="79" y="588" type="line"/>
      <point x="111" y="588" type="line"/>
      <point x="159" y="660" type="line"/>
      <point x="170" y="673"/>
      <point x="169" y="694"/>
      <point x="153" y="703" type="curve" smooth="yes"/>
      <point x="137" y="712"/>
      <point x="118" y="702"/>
    </contour>
    <contour>
      <point x="174" y="579" type="curve" name="hr02" smooth="yes"/>
      <point x="158" y="579"/>
      <point x="144" y="565"/>
      <point x="144" y="548" type="curve" smooth="yes"/>
      <point x="144" y="532"/>
      <point x="158" y="518"/>
      <point x="174" y="518" type="curve" smooth="yes"/>
      <point x="191" y="518"/>
      <point x="205" y="532"/>
      <point x="205" y="548" type="curve" smooth="yes"/>
      <point x="205" y="565"/>
      <point x="191" y="579"/>
    </contour>
    <contour>
      <point x="31" y="579" type="curve" smooth="yes"/>
      <point x="14" y="579"/>
      <point x="0" y="565"/>
      <point x="0" y="548" type="curve" smooth="yes"/>
      <point x="0" y="532"/>
      <point x="14" y="518"/>
      <point x="31" y="518" type="curve" smooth="yes"/>
      <point x="48" y="518"/>
      <point x="61" y="532"/>
      <point x="61" y="548" type="curve" smooth="yes"/>
      <point x="61" y="565"/>
      <point x="48" y="579"/>
    </contour>
  </outline>
</glyph>
<glyph name="Deltagreek" format="1">
  <advance width="467"/>
  <unicode hex="0394"/>
  <outline>
    <contour>
      <point x="208" y="635" type="line" name="hr00"/>
      <point x="5" y="0" type="line"/>
      <point x="463" y="0" type="line"/>
      <point x="256" y="635" type="line"/>
    </contour>
    <contour>
      <point x="394" y="45" type="line"/>
      <point x="72" y="45" type="line"/>
      <point x="232" y="556" type="line"/>
    </contour>
  </outline>
</glyph>
<glyph name="Eta" format="1">
  <advance width="431"/>
  <unicode hex="0397"/>
  <outline>
    <contour>
      <point x="71" y="635" type="line" name="hr00"/>
      <point x="20" y="635" type="line"/>
      <point x="20" y="0" type="line"/>
      <point x="71" y="0" type="line"/>
      <point x="71" y="324" type="line"/>
      <point x="359" y="324" type="line"/>
      <point x="359" y="0" type="line"/>
      <point x="410" y="0" type="line"/>
      <point x="410" y="635" type="line"/>
      <point x="359" y="635" type="line"/>
      <point x="359" y="374" type="line"/>
      <point x="71" y="374" type="line"/>
    </contour>
  </outline>
</glyph>
<glyph name="Lambda" format="1">
  <advance width="467"/>
  <unicode hex="039B"/>
  <outline>
    <contour>
      <point x="463" y="0" type="line" name="hr00"/>
      <point x="256" y="635" type="line"/>
      <point x="208" y="635" type="line"/>
      <point x="5" y="0" type="line"/>
      <point x="59" y="0" type="line"/>
      <point x="232" y="556" type="line"/>
      <point x="408" y="0" type="line"/>
    </contour>
  </outline>
</glyph>
<glyph name="Psi" format="1">
  <advance width="503"/>
  <unicode hex="03A8"/>
  <outline>
    <contour>
      <point x="63" y="359" type="curve" name="hr00"/>
      <point x="63" y="635" type="line"/>
      <point x="12" y="635" type="line"/>
      <point x="12" y="368" type="line" smooth="yes"/>
      <point x="12" y="258"/>
      <point x="68" y="193"/>
      <point x="183" y="193" type="curve" smooth="yes"/>
      <point x="223" y="193" type="line"/>
      <point x="223" y="0" type="line"/>
      <point x="275" y="0" type="line"/>
      <point x="275" y="193" type="line"/>
      <point x="320" y="193" type="line" smooth="yes"/>
      <point x="435" y="193"/>
      <point x="489" y="258"/>
      <point x="489" y="368" type="curve" smooth="yes"/>
      <point x="489" y="498" type="line" smooth="yes"/>
      <point x="489" y="579"/>
      <point x="471" y="620"/>
      <point x="438" y="643" type="curve"/>
      <point x="398" y="628" type="line"/>
      <point x="398" y="628"/>
      <point x="438" y="597"/>
      <point x="438" y="511" type="curve" smooth="yes"/>
      <point x="438" y="359" type="line" smooth="yes"/>
      <point x="438" y="279"/>
      <point x="392" y="239"/>
      <point x="320" y="239" type="curve" smooth="yes"/>
      <point x="275" y="239" type="line"/>
      <point x="275" y="635" type="line"/>
      <point x="223" y="635" type="line"/>
      <point x="223" y="239" type="line"/>
      <point x="183" y="239" type="line" smooth="yes"/>
      <point x="110" y="239"/>
      <point x="63" y="279"/>
    </contour>
  </outline>
</glyph>
<glyph name="iotatonos" format="1">
  <advance width="126"/>
  <unicode hex="03AF"/>
  <outline>
    <contour>
      <point x="68" y="454" type="line" name="hr00"/>
      <point x="18" y="454" type="line"/>
      <point x="18" y="0" type="line"/>
      <point x="68" y="0" type="line"/>
    </contour>
    <contour>
      <point x="63" y="592" type="curve"/>
      <point x="29" y="494" type="line"/>
      <point x="61" y="494" type="line"/>
      <point x="109" y="566" type="line"/>
      <point x="121" y="580"/>
      <point x="119" y="601"/>
      <point x="103" y="610" type="curve" smooth="yes"/>
      <point x="87" y="618"/>
      <point x="69" y="608"/>
    </contour>
  </outline>
</glyph>
<glyph name="eta" format="1">
  <advance width="368"/>
  <unicode hex="03B7"/>
  <outline>
    <contour>
      <point x="302" y="311" type="curve" name="hr00"/>
      <point x="302" y="-169" type="line"/>
      <point x="352" y="-190" type="line"/>
      <point x="352" y="314" type="line" smooth="yes"/>
      <point x="352" y="409"/>
      <point x="294" y="462"/>
      <point x="194" y="462" type="curve" smooth="yes"/>
      <point x="149" y="462"/>
      <point x="103" y="447"/>
      <point x="68" y="423" type="curve"/>
      <point x="68" y="454" type="line"/>
      <point x="17" y="454" type="line"/>
      <point x="17" y="0" type="line"/>
      <point x="68" y="0" type="line"/>
      <point x="68" y="385" type="line"/>
      <point x="105" y="406"/>
      <point x="143" y="416"/>
      <point x="184" y="416" type="curve" smooth="yes"/>
      <point x="242" y="416"/>
      <point x="302" y="393"/>
    </contour>
  </outline>
</glyph>
<glyph name="nu" format="1">
  <advance width="355"/>
  <unicode hex="03BD"/>
  <outline>
    <contour>
      <point x="209" y="0" type="line" name="hr00"/>
      <point x="350" y="454" type="line"/>
      <point x="296" y="454" type="line"/>
      <point x="175" y="53" type="line"/>
      <point x="54" y="454" type="line"/>
      <point x="1" y="454" type="line"/>
      <point x="139" y="0" type="line"/>
    </contour>
  </outline>
</glyph>
<glyph name="sigma1" format="1">
  <advance width="277"/>
  <unicode hex="03C2"/>
  <outline>
    <contour>
      <point x="56" y="258" type="curve" name="hr00"/>
      <point x="56" y="339" type="line" smooth="yes"/>
      <point x="56" y="390"/>
      <point x="103" y="415"/>
      <point x="160" y="413" type="curve" smooth="yes"/>
      <point x="195" y="412"/>
      <point x="231" y="398"/>
      <point x="249" y="386" type="curve"/>
      <point x="268" y="426" type="line"/>
      <point x="268" y="426"/>
      <point x="221" y="457"/>
      <point x="148" y="457" type="curve" smooth="yes"/>
      <point x="84" y="457"/>
      <point x="5" y="422"/>
      <point x="5" y="347" type="curve" smooth="yes"/>
      <point x="5" y="317"/>
      <point x="5" y="287"/>
      <point x="5" y="257" type="curve" smooth="yes"/>
      <point x="5" y="204"/>
      <point x="20" y="171"/>
      <point x="68" y="130" type="curve" smooth="yes"/>
      <point x="89" y="112"/>
      <point x="112" y="92"/>
      <point x="151" y="58" type="curve" smooth="yes"/>
      <point x="186" y="29"/>
      <point x="197" y="13"/>
      <point x="197" y="-20" type="curve" smooth="yes"/>
      <point x="197" y="-50"/>
      <point x="170" y="-79"/>
      <point x="138" y="-98" type="curve"/>
      <point x="161" y="-129" type="line"/>
      <point x="209" y="-101"/>
      <point x="241" y="-67"/>
      <point x="241" y="-17" type="curve" smooth="yes"/>
      <point x="241" y="43"/>
      <point x="202" y="78"/>
      <point x="169" y="105" type="curve"/>
      <point x="137" y="133"/>
      <point x="119" y="150"/>
      <point x="101" y="165" type="curve" smooth="yes"/>
      <point x="63" y="198"/>
      <point x="56" y="222"/>
    </contour>
  </outline>
</glyph>
<glyph name="quoteleft" format="1">
  <advance width="97"/>
  <unicode hex="2018"/>
  <outline>
    <contour>
      <point x="80" y="636" type="curve" name="hr00"/>
      <point x="64" y="647" type="line"/>
      <point x="46" y="631"/>
      <point x="16" y="595"/>
      <point x="16" y="538" type="curve" smooth="yes"/>
      <point x="16" y="520"/>
      <point x="30" y="508"/>
      <point x="46" y="508" type="curve" smooth="yes"/>
      <point x="63" y="508"/>
      <point x="77" y="521"/>
      <point x="77" y="538" type="curve" smooth="yes"/>
      <point x="77" y="553"/>
      <point x="66" y="565"/>
      <point x="51" y="568" type="curve"/>
      <point x="54" y="587"/>
      <point x="60" y="612"/>
    </contour>
  </outline>
</glyph>
<glyph name="quoteright" format="1">
  <advance width="94"/>
  <unicode hex="2019"/>
  <outline>
    <contour>
      <point x="15" y="506" type="curve" name="hr00"/>
      <point x="31" y="495" type="line"/>
      <point x="49" y="511"/>
      <point x="79" y="547"/>
      <point x="79" y="604" type="curve" smooth="yes"/>
      <point x="79" y="622"/>
      <point x="65" y="635"/>
      <point x="48" y="635" type="curve" smooth="yes"/>
      <point x="32" y="635"/>
      <point x="18" y="621"/>
      <point x="18" y="604" type="curve" smooth="yes"/>
      <point x="18" y="589"/>
      <point x="29" y="577"/>
      <point x="43" y="574" type="curve"/>
      <point x="41" y="555"/>
      <point x="34" y="530"/>
    </contour>
  </outline>
</glyph>
<glyph name="quotesinglbase" format="1">
  <advance width="97"/>
  <unicode hex="201A"/>
  <outline>
    <contour>
      <point x="16" y="-59" type="curve" name="hr00"/>
      <point x="32" y="-70" type="line"/>
      <point x="50" y="-54"/>
      <point x="79" y="-18"/>
      <point x="80" y="39" type="curve"/>
      <point x="79" y="57"/>
      <point x="66" y="69"/>
      <point x="49" y="69" type="curve" smooth="yes"/>
      <point x="33" y="69"/>
      <point x="19" y="56"/>
      <point x="19" y="39" type="curve" smooth="yes"/>
      <point x="19" y="24"/>
      <point x="30" y="12"/>
      <point x="44" y="9" type="curve"/>
      <point x="42" y="-10"/>
      <point x="35" y="-35"/>
    </contour>
  </outline>
</glyph>
<glyph name="quotedblleft" format="1">
  <advance width="260"/>
  <unicode hex="201C"/>
  <outline>
    <contour>
      <point x="243" y="636" type="curve" name="hr02"/>
      <point x="227" y="647" type="line"/>
      <point x="209" y="631"/>
      <point x="179" y="595"/>
      <point x="179" y="538" type="curve" name="hr01" smooth="yes"/>
      <point x="179" y="520"/>
      <point x="193" y="508"/>
      <point x="209" y="508" type="curve" smooth="yes"/>
      <point x="226" y="508"/>
      <point x="240" y="521"/>
      <point x="240" y="538" type="curve" smooth="yes"/>
      <point x="240" y="553"/>
      <point x="229" y="565"/>
      <point x="214" y="568" type="curve"/>
      <point x="217" y="587"/>
      <point x="223" y="612"/>
    </contour>
    <contour>
      <point x="80" y="636" type="curve"/>
      <point x="64" y="647" type="line"/>
      <point x="46" y="631"/>
      <point x="16" y="595"/>
      <point x="16" y="538" type="curve" name="hr03" smooth="yes"/>
      <point x="16" y="520"/>
      <point x="30" y="508"/>
      <point x="46" y="508" type="curve" smooth="yes"/>
      <point x="63" y="508"/>
      <point x="77" y="521"/>
      <point x="77" y="538" type="curve" smooth="yes"/>
      <point x="77" y="553"/>
      <point x="66" y="565"/>
      <point x="51" y="568" type="curve"/>
      <point x="53" y="587"/>
      <point x="60" y="612"/>
    </contour>
  </outline>
</glyph>
<glyph name="bullet" format="1">
  <advance width="289"/>
  <unicode hex="2022"/>
  <outline>
    <contour>
      <point x="234" y="395" type="curve" name="hr00" smooth="yes"/>
      <point x="209" y="420"/>
      <point x="179" y="433"/>
      <point x="144" y="433" type="curve" smooth="yes"/>
      <point x="109" y="433"/>
      <point x="79" y="420"/>
      <point x="54" y="395" type="curve" smooth="yes"/>
      <point x="28" y="370"/>
      <point x="16" y="340"/>
      <point x="16" y="305" type="curve" smooth="yes"/>
      <point x="16" y="270"/>
      <point x="28" y="240"/>
      <point x="54" y="215" type="curve" smooth="yes"/>
      <point x="79" y="190"/>
      <point x="109" y="177"/>
      <point x="144" y="177" type="curve" smooth="yes"/>
      <point x="179" y="177"/>
      <point x="209" y="190"/>
      <point x="234" y="215" type="curve" smooth="yes"/>
      <point x="259" y="240"/>
      <point x="272" y="270"/>
      <point x="272" y="305" type="curve" smooth="yes"/>
      <point x="272" y="340"/>
      <point x="259" y="370"/>
    </contour>
  </outline>
</glyph>
<glyph name="guilsinglright" format="1">
  <advance width="236"/>
  <unicode hex="203A"/>
  <outline>
    <contour>
      <point x="50" y="72" type="line" name="hr00"/>
      <point x="219" y="242" type="line"/>
      <point x="50" y="412" type="line"/>
      <point x="16" y="378" type="line"/>
      <point x="152" y="242" type="line"/>
      <point x="18" y="103" type="line"/>
    </contour>
  </outline>
</glyph>
<glyph name="ff" format="1">
  <advance width="417"/>
  <unicode hex="FB00"/>
  <outline>
    <contour>
      <point x="395" y="575" type="curve"/>
      <point x="414" y="619" type="line"/>
      <point x="399" y="629"/>
      <point x="374" y="635"/>
      <point x="354" y="635" type="curve" smooth="yes"/>
      <point x="324" y="635"/>
      <point x="292" y="624"/>
      <point x="268" y="602" type="curve"/>
      <point x="232" y="627"/>
      <point x="192" y="640"/>
      <point x="147" y="640" type="curve" name="hr01" smooth="yes"/>
      <point x="74" y="640"/>
      <point x="19" y="585"/>
      <point x="19" y="509" type="curve" smooth="yes"/>
      <point x="19" y="0" type="line"/>
      <point x="70" y="0" type="line"/>
      <point x="70" y="405" type="line"/>
      <point x="153" y="405" type="line"/>
      <point x="174" y="453" type="line"/>
      <point x="70" y="453" type="line"/>
      <point x="70" y="468"/>
      <point x="70" y="483"/>
      <point x="70" y="498" type="curve" smooth="yes"/>
      <point x="70" y="574"/>
      <point x="115" y="597"/>
      <point x="166" y="592" type="curve" smooth="yes"/>
      <point x="189" y="590"/>
      <point x="215" y="578"/>
      <point x="241" y="562" type="curve"/>
      <point x="235" y="545"/>
      <point x="230" y="528"/>
      <point x="230" y="509" type="curve" smooth="yes"/>
      <point x="230" y="339"/>
      <point x="230" y="170"/>
      <point x="230" y="0" type="curve"/>
      <point x="282" y="0" type="line"/>
      <point x="282" y="405" type="line"/>
      <point x="364" y="405" type="line"/>
      <point x="385" y="453" type="line"/>
      <point x="282" y="453" type="line"/>
      <point x="282" y="468"/>
      <point x="282" y="483"/>
      <point x="282" y="498" type="curve" name="hr02" smooth="yes"/>
      <point x="282" y="533"/>
      <point x="293" y="558"/>
      <point x="316" y="574" type="curve"/>
      <point x="340" y="589"/>
      <point x="366" y="589"/>
    </contour>
  </outline>
</glyph>
